# xmcd
#
# Track frame offsets:
#	150
#	20076
#	36696
#	51677
#	64519
#	87970
#	101130
#	108042
#	125518
#	143685
#	161649
#	179437
#	198682
#	218654
#	232124
#	242451
#	260153
#	269939
#	289422
#
# Disc length: 4052 seconds
#
# Revision: 0
# Processed by: cddbd v1.5.2PL0 Copyright (c) Steve Scherf et al.
# Submitted via: EasyCDDAExtractor 11.0.2.1
#
DISCID=350fd213
DTITLE=Motsi Ski - Authentic
DYEAR=1900
DGENRE=Rap
TTITLE0=The D
TTITLE1=Hustle
TTITLE2=Setup
TTITLE3=Spot Life
TTITLE4=Hello
TTITLE5=Friend
TTITLE6=Reno Real Talk
TTITLE7=Nigga U Cop From
TTITLE8=Kill Or Be Killed
TTITLE9=The Pod Is O
TTITLE10=I've Been Waiting
TTITLE11=Know Your Name
TTITLE12=It Ain't Like That
TTITLE13=21 And Over
TTITLE14=Let's Take It Back
TTITLE15=Every Man
TTITLE16=Trapped
TTITLE17=Picture You Loving Me
TTITLE18=Bitch Betta Have My Money
EXTD=
EXTT0=
EXTT1=
EXTT2=
EXTT3=
EXTT4=
EXTT5=
EXTT6=
EXTT7=
EXTT8=
EXTT9=
EXTT10=
EXTT11=
EXTT12=
EXTT13=
EXTT14=
EXTT15=
EXTT16=
EXTT17=
EXTT18=
PLAYORDER=
